<?xml version="1.0"?>
<svg version="1.1" xmlns="http://www.w3.org/2000/svg" width="70" height="50" style=""><path fill="#4a2609" d="M32.04,22l-1.86,0l0,2.22q0,2.76-1.92,4.62q-1.89,1.8-4.5,1.8q-2.79,0-4.59-1.8t-1.8-4.62l0-2.22l-1.86,0l0,2.22q0,3.36,2.04,5.7q2.01,2.37,5.1,2.58l0,10.53l1.89,0l0-10.53q3.15-0.24,5.31-2.58q2.19-2.34,2.19-5.7l0-2.22z M36.0252,42.94l1.86,0l0-12.69q0-2.52,1.92-4.44t4.44-1.92q2.46,0,4.44,1.92q1.89,1.89,1.89,4.44l0,12.69l1.92,0l0-12.69q0-2.58,1.92-4.44q1.92-1.92,4.41-1.92q2.52,0,4.44,1.92t1.92,4.44l0,12.69l1.86,0l0-12.69q0-3.42-2.4-5.82t-5.82-2.4q-2.25,0-4.23,1.23q-2.01,1.26-2.88,3.21q-1.17-2.01-3.15-3.21q-2.07-1.23-4.32-1.23q-3.39,0-5.79,2.4q-2.43,2.43-2.43,5.82l0,12.69z"/><path fill="#" d=""/></svg>
